Coordinates
version=1
nRows=27
nColumns=38
inDegrees=no

Units are S.I. units (second, meters, Newtons, ...)
If the header above contains a line with 'inDegrees', this indicates whether rotational values are in degrees (yes) or radians (no).

endheader
time	pelvis_tilt	pelvis_list	pelvis_rotation	pelvis_tx	pelvis_ty	pelvis_tz	hip_flexion_r	hip_adduction_r	hip_rotation_r	knee_angle_r	ankle_angle_r	subtalar_angle_r	mtp_angle_r	hip_flexion_l	hip_adduction_l	hip_rotation_l	knee_angle_l	ankle_angle_l	subtalar_angle_l	mtp_angle_l	lumbar_extension	lumbar_bending	lumbar_rotation	arm_flex_r	arm_add_r	arm_rot_r	elbow_flex_r	pro_sup_r	wrist_flex_r	wrist_dev_r	arm_flex_l	arm_add_l	arm_rot_l	elbow_flex_l	pro_sup_l	wrist_flex_l	wrist_dev_l
0.56	2.79152	1.43595	-1.26343	0.863362	0.00636855	0.998521	-0.331258	0.0550685	-0.294301	0.215292	0.240515	0	0	0.315685	-0.0455296	-0.12139	0.198037	0.0347878	0	0	-0.320704	0.0401667	0.086392	0.0534844	-0.193945	0.172481	0.28787	1.32181	0	0	0.0705026	-0.257717	0.382139	0.353383	1.30404	0	0
0.57	2.79952	1.43688	-1.27746	0.8635	0.0158002	0.997196	-0.336817	0.0502686	-0.291503	0.223348	0.244404	0	0	0.315118	-0.0450298	-0.124292	0.196072	0.0340824	0	0	-0.320281	0.0360556	0.0921047	0.0498802	-0.19387	0.174633	0.289963	1.31796	0	0	0.0661319	-0.25925	0.380409	0.358447	1.30529	0	0
0.58	2.81031	1.43744	-1.29509	0.863676	0.0255391	0.995921	-0.342769	0.0446614	-0.288091	0.231997	0.248132	0	0	0.31409	-0.0448958	-0.130655	0.198531	0.0354314	0	0	-0.319632	0.0313859	0.0982203	0.0462818	-0.193529	0.177041	0.290635	1.3142	0	0	0.0605942	-0.260893	0.378514	0.364001	1.30622	0	0
0.59	2.82004	1.43743	-1.31318	0.863916	0.0355775	0.994712	-0.348973	0.0384348	-0.283088	0.241428	0.25146	0	0	0.312244	-0.045653	-0.140344	0.204924	0.0405021	0	0	-0.31894	0.0266353	0.105508	0.0423419	-0.193307	0.17915	0.29082	1.31042	0	0	0.0539186	-0.262611	0.377513	0.369947	1.30775	0	0
0.6	2.83521	1.43666	-1.33766	0.864168	0.045937	0.993607	-0.355883	0.0307859	-0.277727	0.251688	0.253772	0	0	0.309472	-0.046659	-0.153191	0.215789	0.0465385	0	0	-0.318735	0.0209702	0.113293	0.037889	-0.193055	0.180844	0.291074	1.30664	0	0	0.0464783	-0.264575	0.377788	0.375957	1.30981	0	0
0.61	2.85093	1.43539	-1.36332	0.864449	0.0565548	0.992519	-0.362768	0.0224038	-0.272025	0.26322	0.255038	0	0	0.306482	-0.0483446	-0.167341	0.231595	0.0511426	0	0	-0.318666	0.0148891	0.121487	0.0329462	-0.192705	0.182464	0.291501	1.30342	0	0	0.0383494	-0.266725	0.37853	0.38209	1.31173	0	0
0.62	2.86951	1.4345	-1.39104	0.864653	0.0674704	0.991377	-0.368859	0.0132798	-0.267383	0.27599	0.255407	0	0	0.302736	-0.049156	-0.180873	0.248997	0.0534381	0	0	-0.317484	0.00834282	0.128573	0.0271221	-0.192013	0.183593	0.292192	1.30085	0	0	0.0291137	-0.269229	0.379194	0.388473	1.31286	0	0
0.63	2.88942	1.43424	-1.41955	0.864732	0.0786801	0.990174	-0.373689	0.00351161	-0.262728	0.290246	0.255275	0	0	0.298317	-0.0489355	-0.193689	0.266524	0.0548346	0	0	-0.314851	0.0016217	0.134863	0.0204092	-0.191317	0.18408	0.293088	1.29877	0	0	0.0187467	-0.271748	0.37933	0.395011	1.31291	0	0
0.64	2.91105	1.43399	-1.45011	0.86477	0.0900369	0.989059	-0.377363	-0.00700358	-0.256432	0.306411	0.253559	0	0	0.29272	-0.0481485	-0.206696	0.281964	0.0521711	0	0	-0.311943	-0.00552192	0.141145	0.0132747	-0.19071	0.183789	0.294574	1.29733	0	0	0.00817164	-0.274032	0.379159	0.400898	1.31238	0	0
0.65	2.93515	1.43372	-1.48265	0.864653	0.101524	0.988046	-0.379474	-0.0185208	-0.250666	0.325298	0.250552	0	0	0.288266	-0.0476058	-0.225658	0.296629	0.0428128	0	0	-0.308707	-0.0128159	0.146849	0.00555819	-0.190397	0.183032	0.296655	1.29685	0	0	-0.00207319	-0.2758	0.379342	0.405014	1.31228	0	0
0.66	2.97755	1.43362	-1.53071	0.864224	0.112835	0.98738	-0.379326	-0.0322517	-0.246078	0.347587	0.245904	0	0	0.284899	-0.0438525	-0.240931	0.309878	0.0238168	0	0	-0.306091	-0.0223397	0.149534	-0.00157418	-0.189423	0.181217	0.298896	1.29667	0	0	-0.0103047	-0.27726	0.379974	0.407045	1.3129	0	0
0.67	3.03662	1.4339	-1.59168	0.863495	0.123837	0.98715	-0.375671	-0.0473233	-0.243358	0.374445	0.237413	0	0	0.285256	-0.0376929	-0.248506	0.32854	0.00731308	0	0	-0.304141	-0.0336931	0.148539	-0.00783874	-0.18755	0.178663	0.301437	1.29735	0	0	-0.0160559	-0.278606	0.380989	0.407471	1.31392	0	0
0.68	3.10416	1.43435	-1.65813	0.862651	0.134556	0.987317	-0.368147	-0.0624753	-0.241096	0.40616	0.225034	0	0	0.289455	-0.030292	-0.247822	0.354065	-0.00010511	0	0	-0.302691	-0.0457383	0.1452	-0.0133545	-0.184833	0.174543	0.304052	1.29893	0	0	-0.0197031	-0.27987	0.381838	0.406768	1.31473	0	0
0.69	-3.11326	1.43606	-1.72074	0.861716	0.145138	0.987609	-0.355127	-0.0766086	-0.239155	0.443489	0.209002	0	0	0.297037	-0.0227947	-0.242775	0.382546	-0.000572902	0	0	-0.29973	-0.056624	0.141154	-0.0194865	-0.181945	0.166179	0.307316	1.30313	0	0	-0.0221308	-0.280536	0.381719	0.404869	1.31487	0	0
0.7	-3.06453	1.43821	-1.76537	0.860653	0.155699	0.987984	-0.338686	-0.0883373	-0.236411	0.484871	0.187515	0	0	0.304122	-0.0170435	-0.238352	0.408108	-0.000863203	0	0	-0.296131	-0.0640788	0.137925	-0.0262717	-0.179674	0.150651	0.310669	1.31564	0	0	-0.0234886	-0.279523	0.379128	0.400847	1.31514	0	0
0.71	-3.03033	1.44125	-1.79572	0.85944	0.16615	0.988372	-0.317887	-0.0988515	-0.23287	0.530828	0.160246	0	0	0.309375	-0.0126483	-0.23276	0.428875	-0.00544545	0	0	-0.291749	-0.0685383	0.136272	-0.0334341	-0.17921	0.1363	0.314781	1.32772	0	0	-0.0243867	-0.277279	0.375255	0.396285	1.31872	0	0
0.72	-2.92731	1.43897	-1.89496	0.858153	0.175665	0.989766	-0.294894	-0.12094	-0.230797	0.582598	0.127544	0	0	0.307552	0.00021257	-0.24472	0.439927	-0.0141158	0	0	-0.293461	-0.0842376	0.132646	-0.0354749	-0.176508	0.121143	0.31559	1.33834	0	0	-0.0209965	-0.276823	0.372123	0.391246	1.32424	0	0
0.73	-2.97825	1.45452	-1.84663	0.856998	0.186661	0.988534	-0.256568	-0.118443	-0.213578	0.63696	0.0916434	0	0	0.317267	-0.00625751	-0.233644	0.453778	0.00175578	0	0	-0.273944	-0.0723868	0.141975	-0.0494967	-0.182249	0.10847	0.324407	1.35063	0	0	-0.0267178	-0.270765	0.370195	0.38666	1.33051	0	0
0.74	-2.93265	1.46398	-1.89726	0.856163	0.196313	0.988379	-0.215039	-0.129545	-0.194245	0.697343	0.0523029	0	0	0.321276	-0.00329405	-0.239652	0.460974	0.0133615	0	0	-0.261221	-0.0761318	0.149993	-0.0560751	-0.184668	0.101267	0.328256	1.35653	0	0	-0.0283992	-0.268768	0.371612	0.384942	1.33279	0	0
0.75	-2.85354	1.47397	-1.98421	0.855629	0.205434	0.988124	-0.167594	-0.141689	-0.169775	0.761003	0.0118704	0	0	0.326175	0.00106313	-0.246521	0.465687	0.0223153	0	0	-0.247004	-0.0827013	0.159727	-0.06026	-0.186827	0.0994036	0.330149	1.35972	0	0	-0.0301718	-0.26851	0.376238	0.385814	1.33223	0	0
0.76	-2.72733	1.48183	-2.11989	0.85537	0.214149	0.987911	-0.117797	-0.155118	-0.142497	0.824689	-0.0283962	0	0	0.330651	0.00817817	-0.253368	0.468256	0.0279256	0	0	-0.232914	-0.0930174	0.169653	-0.0622745	-0.188178	0.101109	0.330668	1.36	0	0	-0.0322608	-0.270264	0.383184	0.389314	1.32826	0	0
0.77	-2.56889	1.48601	-2.2886	0.855311	0.222465	0.987845	-0.0678283	-0.16838	-0.113723	0.886467	-0.0688581	0	0	0.333714	0.0172427	-0.259501	0.469073	0.0331645	0	0	-0.220269	-0.105679	0.178988	-0.0623413	-0.188806	0.10367	0.330902	1.35915	0	0	-0.0347445	-0.273382	0.390214	0.395315	1.32084	0	0
0.78	-2.48854	1.48394	-2.38303	0.856368	0.2306	0.988692	-0.0274404	-0.175093	-0.0802507	0.942026	-0.111252	0	0	0.327457	0.023199	-0.264935	0.469789	0.0411347	0	0	-0.216659	-0.117864	0.191138	-0.0598345	-0.188072	0.105891	0.330805	1.3582	0	0	-0.0364939	-0.277717	0.394483	0.402493	1.31439	0	0
0.79	-2.28011	1.48301	-2.59662	0.855153	0.238332	0.988487	0.0252615	-0.191509	-0.0593184	1.00105	-0.151414	0	0	0.331337	0.038984	-0.265346	0.464629	0.0460146	0	0	-0.202516	-0.131105	0.193516	-0.0592047	-0.190865	0.110754	0.333321	1.35533	0	0	-0.0391986	-0.278884	0.4005	0.408254	1.30226	0	0
0.8	-2.2154	1.4788	-2.66742	0.854756	0.246147	0.989457	0.0624966	-0.199095	-0.0385512	1.05054	-0.193236	0	0	0.322454	0.0492267	-0.264379	0.457937	0.0509017	0	0	-0.200305	-0.139722	0.196722	-0.0567978	-0.193071	0.113882	0.335807	1.35338	0	0	-0.0397222	-0.278664	0.401146	0.410804	1.29666	0	0
0.81	-2.1794	1.47575	-2.70818	0.854258	0.253888	0.990605	0.0964813	-0.203239	-0.0202572	1.09484	-0.233421	0	0	0.31142	0.0575339	-0.262713	0.449175	0.0548138	0	0	-0.199421	-0.145348	0.198904	-0.0544917	-0.195828	0.116971	0.338846	1.35175	0	0	-0.0387937	-0.276331	0.400561	0.409693	1.29236	0	0
0.82	-2.17287	1.47481	-2.71695	0.853636	0.261505	0.992012	0.126648	-0.203041	-0.00564586	1.1348	-0.264961	0	0	0.298666	0.0630495	-0.259139	0.439921	0.0584585	0	0	-0.200454	-0.147044	0.199182	-0.0520167	-0.199077	0.119824	0.342267	1.35026	0	0	-0.0359446	-0.271964	0.39882	0.404616	1.28965	0	0
